<svg width="1222" height="76" viewBox="0 0 1222 76" fill="none" xmlns="http://www.w3.org/2000/svg">
<g clip-path="url(#clip0_139_583)">
<path d="M786.04 29.6167C786.04 25.7065 782.575 24.5869 778.103 24.5869H719.626V34.9823H778.103C782.575 34.9823 786.04 33.8627 786.04 29.6167Z" fill="white"/>
<path d="M885.755 22.6963L870.683 46.1277H900.952L885.755 22.6963Z" fill="white"/>
<path d="M27.9535 37.2068L63.7327 73.7523H97.2845L133.064 37.061V73.7629H161.007V2.24133H133.055L80.4199 56.5464L27.9535 2.24133H0V73.7692H27.9535V37.2068Z" fill="#0A0903"/>
<path d="M240.397 75.9979C272.486 75.9979 304.578 69.7387 304.578 37.999V2.24133H276.622V32.9692C276.622 50.6273 262.535 53.422 240.395 53.422C217.585 53.422 204.058 50.6294 204.058 32.9692V2.24133H176.106V38.0053C176.106 69.7387 206.406 75.9979 240.397 75.9979Z" fill="#0A0903"/>
<path d="M330.72 73.8073H412.789V52.5728H347.625V2.24133H319.676V73.7692H330.722L330.72 73.8073Z" fill="#0A0903"/>
<path d="M447.475 73.7629H475.429V24.0271H519.598V2.24133H403.31V24.0271H447.479L447.475 73.7629Z" fill="#0A0903"/>
<path d="M556.157 23.9045H528.204V73.7502H556.157V23.9045Z" fill="#0A0903"/>
<path d="M556.379 1.11536H527.98V17.9622H556.379V1.11536Z" fill="#0A0903"/>
<path d="M608.932 73.7629H636.885V24.0271H681.055V2.24133H564.775V24.0271H608.945L608.932 73.7629Z" fill="#0A0903"/>
<path d="M719.626 53.6459H761.107C778.997 53.6459 783.509 55.0993 783.509 61.8043V73.7629H811.462V58.4497C811.462 51.3307 807.774 48.1979 795.747 46.9283C806.16 45.0503 813.998 40.0586 813.998 26.8219C813.998 8.38014 798.345 2.23499 778.107 2.23499H691.67V73.7629H719.624L719.626 53.6459ZM719.626 24.5869H778.103C782.575 24.5869 786.041 25.7044 786.041 29.6167C786.041 33.8649 782.575 34.9824 778.103 34.9824H719.626V24.5869Z" fill="#0A0903"/>
<path d="M859.898 62.8943H911.826L918.876 73.7629H949.623L901.208 2.24133H870.125L822.151 73.7692H852.901L859.898 62.8943ZM885.757 22.6984L900.954 46.1298H870.683L885.757 22.6984Z" fill="#0A0903"/>
<path d="M1019.85 75.9999C1062.19 75.9999 1082.57 65.256 1083.8 43.8694H1054.78C1051.9 49.2963 1044.09 54.2057 1019.84 54.2057C991.221 54.2057 979.369 49.5118 979.369 38.5587C979.369 27.7176 991.221 22.9117 1019.84 22.9117C1044.14 22.9117 1052 27.9119 1054.84 33.3726H1083.86C1082.71 11.9142 1062.27 -0.00427246 1019.84 -0.00427246C976.685 -0.00427246 950.186 9.04762 950.186 38.5545C950.186 68.0613 976.685 75.9999 1019.85 75.9999Z" fill="#0A0903"/>
<path d="M1125.85 35.9604L1179.3 73.7629H1222.01L1164.55 35.5084L1215.96 2.24133H1171.69L1125.85 35.5929V2.24133H1097.89V73.7692H1125.85V35.9604Z" fill="#0A0903"/>
</g>
<defs>
<clipPath id="clip0_139_583">
<rect width="1222" height="76" fill="white"/>
</clipPath>
</defs>
</svg>
