<?xml version="1.0" standalone="no"?>
<!DOCTYPE svg PUBLIC "-//W3C//DTD SVG 20010904//EN"
 "http://www.w3.org/TR/2001/REC-SVG-20010904/DTD/svg10.dtd">
<svg version="1.0" xmlns="http://www.w3.org/2000/svg"
 width="700.000000pt" height="700.000000pt" viewBox="0 0 700.000000 700.000000"
 preserveAspectRatio="xMidYMid meet">
<metadata>
Created by potrace 1.14, written by Peter Selinger 2001-2017
</metadata>
<g transform="translate(0.000000,700.000000) scale(0.100000,-0.100000)"
fill="#000000" stroke="none">
<path d="M2885 6416 c-222 -52 -363 -261 -399 -591 l-6 -50 143 2 c242 2 213
-5 220 54 10 84 65 172 129 205 59 31 152 9 348 -83 370 -174 521 -213 690
-178 228 48 389 267 416 568 l6 72 -173 0 -174 0 -7 -45 c-27 -182 -135 -259
-300 -214 -35 9 -67 21 -72 25 -6 5 -16 9 -24 9 -8 0 -98 40 -201 89 -191 92
-246 114 -340 136 -66 16 -190 16 -256 1z"/>
<path d="M3299 5226 c-2 -2 -44 -6 -94 -10 -112 -8 -134 -12 -265 -41 -547
-121 -892 -486 -974 -1030 -6 -44 -12 -93 -11 -110 l0 -30 218 -1 c119 0 218
2 218 5 1 3 3 20 4 36 2 17 6 48 10 70 3 22 8 52 11 67 10 62 56 187 94 255
156 279 462 417 930 417 166 0 245 -8 365 -39 153 -38 255 -93 346 -185 143
-146 194 -303 193 -591 -1 -154 -25 -236 -89 -307 -27 -30 -68 -62 -100 -76
-47 -23 -237 -76 -320 -91 -53 -9 -348 -54 -392 -60 -90 -11 -129 -16 -153
-20 -14 -2 -52 -7 -85 -11 -33 -3 -62 -8 -65 -9 -3 -2 -26 -6 -50 -10 -65 -9
-106 -16 -170 -30 -14 -3 -36 -8 -50 -11 -14 -3 -36 -7 -50 -10 -148 -29 -362
-105 -525 -186 -291 -145 -449 -377 -492 -723 -14 -111 -8 -364 11 -455 48
-237 145 -401 320 -544 170 -139 351 -212 641 -261 62 -11 351 -13 442 -4 307
31 598 145 805 315 69 56 184 173 230 232 73 93 86 107 93 101 3 -4 7 -42 10
-85 14 -312 175 -500 451 -529 137 -14 277 1 369 39 l35 15 0 165 c0 126 -3
166 -12 166 -7 0 -46 -6 -86 -14 -89 -17 -149 -13 -201 13 -65 34 -107 96
-126 186 -5 22 -9 555 -10 1185 -1 630 -5 1166 -8 1193 -4 26 -10 68 -13 95
-8 72 -51 228 -81 296 -98 221 -264 390 -481 488 -116 53 -277 97 -412 113
-25 3 -56 8 -70 12 -27 6 -405 14 -411 9z m1054 -2233 c-1 -414 -9 -495 -59
-634 -94 -260 -316 -511 -561 -633 -129 -64 -250 -98 -451 -124 -109 -15 -373
-6 -467 15 -11 2 -33 7 -50 10 -57 10 -185 64 -244 104 -120 80 -203 205 -237
356 -21 94 -24 308 -5 398 27 125 104 275 182 354 73 74 204 139 379 189 121
35 179 50 210 56 19 3 46 8 60 11 14 3 120 19 235 36 464 67 747 134 927 218
35 16 67 28 72 27 6 -1 9 -155 9 -383z"/>
</g>
</svg>
