<svg width="129" height="129" viewBox="0 0 129 129" fill="none" xmlns="http://www.w3.org/2000/svg">
<g clip-path="url(#clip0_139_505)">
<path d="M122.94 0H74.3804C71.0335 0 68.3203 2.70728 68.3203 6.04688V54.5C68.3203 57.8396 71.0335 60.5469 74.3804 60.5469H122.94C126.287 60.5469 129 57.8396 129 54.5V6.04688C129 2.70728 126.287 0 122.94 0Z" fill="#0A0903"/>
<path d="M54.319 64.1798V17.2586C54.3194 16.2927 54.1289 15.3363 53.7585 14.4439C53.388 13.5516 52.8449 12.7409 52.1601 12.0583C50.7779 10.6791 48.9032 9.9043 46.9484 9.9043C44.9937 9.9043 43.119 10.6791 41.7367 12.0583L4.08561 49.6346C1.47018 52.2458 0.000976563 55.7866 0.000976562 59.4784C0.000976562 63.1702 1.47018 66.7109 4.08561 69.3222L59.8161 124.923C62.4331 127.533 65.9816 128.999 69.6815 128.999C73.3814 128.999 76.9299 127.533 79.5469 124.923L117.198 87.3545C118.58 85.9752 119.357 84.1046 119.357 82.1542C119.357 80.2037 118.58 78.3331 117.198 76.9538L116.91 76.6717C116.226 75.9884 115.413 75.4464 114.519 75.0768C113.625 74.7071 112.666 74.5171 111.698 74.5175H64.6794C63.3185 74.5184 61.9709 74.2517 60.7135 73.7326C59.456 73.2134 58.3135 72.452 57.3513 71.4918C56.389 70.5317 55.626 69.3917 55.1057 68.137C54.5854 66.8824 54.3181 65.5376 54.319 64.1798Z" fill="#0A0903"/>
</g>
<defs>
<clipPath id="clip0_139_505">
<rect width="129" height="129" fill="white"/>
</clipPath>
</defs>
</svg>
