<svg width="101" height="151" viewBox="0 0 101 151" fill="none" xmlns="http://www.w3.org/2000/svg">
<path fill-rule="evenodd" clip-rule="evenodd" d="M27.9441 0C12.5484 0 0.166415 12.9168 0.166415 28.7403C0.166415 38.3603 4.74675 46.9044 11.7871 52.1202C8.15859 54.8387 5.21743 58.3695 3.1994 62.4296C1.18138 66.4897 0.142627 70.9661 0.166415 75.5C0.166415 85.1263 4.74675 93.664 11.7871 98.8798C8.15859 101.598 5.21743 105.129 3.1994 109.189C1.18138 113.249 0.142627 117.726 0.166415 122.26C0.166415 138.083 12.5484 151 27.9441 151C43.3335 151 55.7218 138.083 55.7218 122.26V97.9612C60.5874 102.018 66.7205 104.242 73.0554 104.247C88.4511 104.24 100.833 91.3235 100.833 75.5C100.858 70.9659 99.8203 66.4889 97.8021 62.4286C95.784 58.3683 92.842 54.8377 89.2124 52.1202C92.8409 49.4016 95.7821 45.8708 97.8001 41.8107C99.8181 37.7506 100.857 33.2742 100.833 28.7403C100.833 12.9168 88.4511 0 73.0554 0H27.9441ZM10.6043 28.7403C10.6043 18.7303 18.4185 10.7147 27.9441 10.7147H45.2777V46.766H27.9441C18.4185 46.766 10.6043 38.7441 10.6043 28.7403ZM73.0554 46.7597H55.7218V10.7084H73.0554C82.5872 10.7084 90.3952 18.7303 90.3952 28.7403C90.3952 38.7441 82.5872 46.7597 73.0554 46.7597ZM10.6106 75.5C10.6106 65.4962 18.4248 57.4744 27.9504 57.4744H45.284V93.5256H27.9441C18.4122 93.5256 10.6043 85.5037 10.6043 75.5H10.6106ZM55.7218 75.5C55.7218 65.4962 63.5361 57.4744 73.0617 57.4744C82.5935 57.4744 90.4015 65.49 90.4015 75.5C90.4015 85.5037 82.5935 93.5256 73.0617 93.5256C63.5361 93.5256 55.7281 85.51 55.7281 75.5H55.7218ZM10.6106 122.26C10.6106 112.256 18.4248 104.24 27.9504 104.24H45.284V122.26C45.284 132.27 37.4823 140.285 27.9504 140.285C18.4248 140.285 10.6106 132.27 10.6106 122.26Z" fill="black"/>
</svg>
