<svg width="125" height="125" viewBox="0 0 125 125" fill="none" xmlns="http://www.w3.org/2000/svg">
<g clip-path="url(#clip0_139_508)">
<path d="M20.2656 81.6248L32.5742 2.40213C32.9805 -0.28537 36.6016 -0.894745 37.8633 1.5076L51.1094 26.3474L20.2656 81.6248ZM107.727 100.851L96.0078 27.9334C95.919 27.4239 95.6923 26.9484 95.3524 26.5586C95.0125 26.1687 94.5723 25.8794 94.0796 25.722C93.587 25.5647 93.0606 25.5452 92.5576 25.6658C92.0547 25.7864 91.5943 26.0424 91.2266 26.406L17.2734 100.847L58.1875 123.918C60.75 125.363 63.8828 125.363 66.4492 123.918L107.727 100.851ZM74.4844 37.2303L65.0039 19.0818C64.7638 18.6263 64.4039 18.2449 63.963 17.9789C63.5221 17.7128 63.0169 17.5722 62.502 17.5722C61.987 17.5722 61.4818 17.7128 61.0409 17.9789C60.6 18.2449 60.2401 18.6263 60 19.0818L18.3945 93.6678L74.4844 37.2303Z" fill="#0A0903"/>
</g>
<defs>
<clipPath id="clip0_139_508">
<rect width="125" height="125" fill="white"/>
</clipPath>
</defs>
</svg>
