<svg width="126" height="126" viewBox="0 0 126 126" fill="none" xmlns="http://www.w3.org/2000/svg">
<path d="M123.622 57.386L68.6071 2.3791C67.8538 1.62548 66.9595 1.02765 65.9751 0.619769C64.9907 0.21189 63.9356 0.00195313 62.8701 0.00195312C61.8046 0.00195313 60.7495 0.21189 59.7652 0.619769C58.7808 1.02765 57.8864 1.62548 57.1332 2.3791L45.7144 13.7979L60.2044 28.2879C61.9133 27.7044 63.7519 27.6131 65.5102 28.0244C67.2685 28.4357 68.8757 29.3331 70.1485 30.6141C71.4212 31.895 72.3082 33.508 72.7082 35.2689C73.1082 37.0298 73.0051 38.8677 72.4107 40.5729L86.3731 54.5431C88.4388 53.8158 90.6906 53.8136 92.7577 54.5368C94.8248 55.2601 96.584 56.6658 97.7457 58.5223C98.9073 60.3789 99.402 62.5757 99.1485 64.751C98.8949 66.9263 97.9082 68.9504 96.3507 70.49C94.774 72.0763 92.6954 73.0661 90.47 73.2901C88.2447 73.5142 86.0105 72.9587 84.1492 71.7184C82.288 70.4782 80.915 68.6302 80.2649 66.4901C79.6149 64.3501 79.728 62.0507 80.5849 59.9847L67.5676 46.9595V81.2393C69.5462 82.2188 71.1294 83.8468 72.0533 85.852C72.9771 87.8572 73.1859 90.1184 72.6446 92.2589C72.1034 94.3993 70.8449 96.2896 69.079 97.6146C67.313 98.9397 65.1463 99.6195 62.9399 99.5407C60.7335 99.4619 58.6208 98.6292 56.9538 97.1816C55.2869 95.7339 54.1665 93.7587 53.7793 91.5851C53.3922 89.4115 53.7617 87.1709 54.8262 85.2367C55.8908 83.3025 57.5861 81.7916 59.6296 80.9558V46.361C58.4506 45.8779 57.3789 45.1662 56.4762 44.267C55.5736 43.3677 54.8579 42.2987 54.3703 41.1216C53.8828 39.9445 53.6331 38.6825 53.6355 37.4083C53.638 36.1342 53.8927 34.8732 54.3848 33.698L40.1074 19.4127L2.38618 57.134C1.63256 57.8872 1.03473 58.7816 0.626849 59.7659C0.21897 60.7503 0.0090332 61.8054 0.0090332 62.8709C0.0090332 63.9364 0.21897 64.9915 0.626849 65.9759C1.03473 66.9602 1.63256 67.8546 2.38618 68.6078L57.4009 123.623C58.1542 124.376 59.0485 124.974 60.0329 125.382C61.0173 125.79 62.0723 126 63.1379 126C64.2034 126 65.2585 125.79 66.2428 125.382C67.2272 124.974 68.1216 124.376 68.8748 123.623L123.63 68.8677C125.15 67.3454 126.004 65.2821 126.004 63.1308C126.004 60.9795 125.15 58.9161 123.63 57.3939" fill="black"/>
</svg>
