<svg width="166" height="189" viewBox="0 0 166 189" fill="none" xmlns="http://www.w3.org/2000/svg">
<path d="M89.4102 69.2925L65.9452 0H165.636L142.09 69.494C141.077 69.7366 140.081 70.0455 139.108 70.4187L115.848 22.9358L92.52 70.1378C91.5037 69.7859 90.4647 69.5035 89.4102 69.2925ZM12.7451 182.722C44.1011 204.762 78.881 162.115 126.256 156.743C153.462 155.13 171.953 138.464 161.417 112.664C141.827 124.738 123.519 108.916 123.647 93.0393H108.761C108.272 107.214 97.6176 118.366 81.1021 116.708C68.1748 136.06 53.192 146.933 36.1914 152.46C24.7008 147.153 13.8876 134.228 18.7901 116.964C16.6568 116.726 14.5654 116.2 12.5725 115.402C-3.23143 144.933 -5.18433 168.272 12.7451 182.722ZM36.0888 93.0415C36.0888 81.8252 23.8716 74.7772 14.151 80.3852C4.43039 85.9932 4.42965 100.09 14.151 105.698C23.8716 111.306 36.0888 104.258 36.0888 93.0415ZM99.3193 92.9024C99.3193 81.6864 87.1017 74.638 77.3811 80.2464C67.6605 85.8547 67.6602 99.9507 77.3811 105.558C87.1021 111.167 99.3189 104.119 99.3189 92.9024H99.3193ZM162.312 92.9024C162.312 81.6864 150.095 74.638 140.374 80.2464C130.653 85.8547 130.653 99.9507 140.374 105.558C150.095 111.167 162.312 104.119 162.312 92.9024H162.312Z" fill="black"/>
</svg>
