<svg width="116" height="116" viewBox="0 0 116 116" fill="none" xmlns="http://www.w3.org/2000/svg">
<path fill-rule="evenodd" clip-rule="evenodd" d="M0 0H116V116H0V0ZM88.6772 97.2467C83.2977 97.2467 80.2575 94.4433 77.923 90.625L69.0635 95.7725C72.2632 102.095 78.8027 106.918 88.9285 106.918C99.2815 106.918 106.991 101.544 106.991 91.727C106.991 82.6258 101.761 78.5803 92.5003 74.6025L89.7743 73.4377C85.0957 71.4077 83.0705 70.0882 83.0705 66.816C83.0705 64.1722 85.1005 62.147 88.2905 62.147C91.4177 62.147 93.4332 63.4665 95.3037 66.816L103.791 61.3688C100.2 55.0517 95.2215 52.6398 88.2905 52.6398C78.5562 52.6398 72.326 58.8652 72.326 67.0432C72.326 75.9123 77.546 80.1125 85.4147 83.462L88.1407 84.6317C93.1142 86.8067 96.077 88.131 96.077 91.8672C96.077 94.9895 93.1915 97.2467 88.6772 97.2467ZM46.4338 97.1742C42.688 97.1742 41.1268 94.6125 39.4158 91.5675L30.5418 96.9422C33.1132 102.384 38.1688 106.899 46.893 106.899C56.5548 106.899 63.1717 101.761 63.1717 90.4752V53.2585H52.2725V90.3302C52.2725 95.7773 50.0105 97.1742 46.429 97.1742H46.4338Z" fill="black"/>
</svg>
