<svg width="225" height="225" viewBox="0 0 225 225" fill="none" xmlns="http://www.w3.org/2000/svg">
<path d="M112.5 0C50.3739 0 0 50.3739 0 112.5C0 174.626 50.3739 225 112.5 225C174.626 225 225 174.626 225 112.5C225 50.3739 174.626 0 112.5 0ZM148.686 114.233L93.8421 154.135C93.5414 154.351 93.187 154.48 92.8178 154.508C92.4486 154.536 92.0789 154.461 91.7493 154.292C91.4197 154.124 91.143 153.867 90.9496 153.552C90.7561 153.236 90.6535 152.873 90.6529 152.503V72.7483C90.6517 72.3773 90.7532 72.0133 90.9463 71.6964C91.1393 71.3796 91.4163 71.1224 91.7465 70.9534C92.0768 70.7844 92.4474 70.7101 92.8173 70.7388C93.1872 70.7675 93.5419 70.8981 93.8421 71.1161L148.686 110.993C148.945 111.177 149.156 111.419 149.302 111.701C149.448 111.983 149.524 112.296 149.524 112.613C149.524 112.93 149.448 113.243 149.302 113.525C149.156 113.807 148.945 114.049 148.686 114.233Z" fill="white"/>
</svg>
