<svg width="141" height="124" viewBox="0 0 141 124" fill="none" xmlns="http://www.w3.org/2000/svg">
<path d="M140.096 62.0005C140.096 52.7779 128.474 44.0367 110.653 38.6191C114.768 20.574 112.941 6.21223 104.886 1.61251C102.934 0.526215 100.724 -0.0205792 98.4878 0.029002V6.35144C99.8012 6.35144 100.858 6.61246 101.745 7.0939C105.627 9.30965 107.314 17.7318 106 28.5728C105.685 31.241 105.172 34.0484 104.541 36.9138C98.5732 35.4848 92.5162 34.452 86.4103 33.8222C82.7728 28.8355 78.8043 24.0957 74.5313 19.6344C83.8419 11.0382 92.5804 6.32824 98.5228 6.32824V0C90.6657 0 80.3862 5.56259 69.9898 15.2087C59.5994 5.62639 49.3139 0.116008 41.4627 0.116008V6.43845C47.3759 6.43845 56.1436 11.1252 65.4542 19.6634C61.4556 23.8397 57.4571 28.5728 53.6569 33.8222C47.5384 34.445 41.4706 35.4877 35.4969 36.9428C34.8656 34.227 34.3688 31.482 34.0084 28.7178C32.6658 17.8711 34.3236 9.44886 38.1821 7.2099C39.0344 6.69947 40.1493 6.46745 41.4627 6.46745V0.14501C39.0694 0.14501 36.8921 0.655446 35.0124 1.72852C26.9861 6.32824 25.1882 20.6552 29.3269 38.6481C11.5638 44.1005 0 52.8069 0 62.0005C0 71.2232 11.6222 79.9644 29.4436 85.3762C25.3283 103.427 27.1554 117.789 35.2109 122.383C37.0672 123.462 39.2387 123.972 41.632 123.972C49.4891 123.972 59.7686 118.409 70.165 108.763C80.5555 118.351 90.835 123.856 98.6921 123.856C100.946 123.903 103.172 123.355 105.142 122.267C113.169 117.673 114.967 103.346 110.828 85.353C128.533 79.9354 140.096 71.1942 140.096 62.0005ZM102.912 43.0738C101.803 46.8664 100.518 50.6059 99.0598 54.2802C96.6733 49.6675 94.0529 45.178 91.2086 40.8291C95.2656 41.4265 99.1766 42.1632 102.918 43.0738H102.912ZM89.8368 73.2939C87.6988 77.0031 85.4026 80.62 82.9546 84.1349C74.3868 84.8853 65.7697 84.895 57.2002 84.1639C52.2848 77.187 47.9862 69.8007 44.3522 62.0875C47.9806 54.3562 52.261 46.9439 57.1477 39.93C65.7133 39.1781 74.3285 39.1664 82.8962 39.8952C85.2662 43.271 87.5836 46.8789 89.8076 50.6839C91.9791 54.3962 93.9522 58.1665 95.7501 61.9715C93.9322 65.8228 91.9596 69.5999 89.8368 73.2939ZM99.0598 69.6049C100.601 73.4041 101.92 77.2092 103 80.8983C99.2642 81.8089 95.3181 82.5746 91.2378 83.1662C94.0703 78.7777 96.6809 74.2517 99.0598 69.6049ZM70.1066 99.883C67.4506 97.1568 64.7946 94.1232 62.1678 90.7996C64.7362 90.9156 67.363 91.0026 70.019 91.0026C72.7042 91.0026 75.3602 90.9446 77.9578 90.7996C75.3894 94.1232 72.7334 97.1568 70.1066 99.883ZM48.8586 83.1662C44.9228 82.5995 41.0154 81.8524 37.1489 80.9273C38.2055 77.2672 39.5189 73.4911 41.0016 69.7209C42.1749 71.983 43.4065 74.2568 44.7491 76.5306C46.0917 78.7985 47.4577 81.0143 48.8586 83.1662ZM69.9607 24.1181C72.6166 26.8443 75.2726 29.8779 77.8995 33.2015C75.331 33.0855 72.7042 32.9985 70.0482 32.9985C67.363 32.9985 64.707 33.0565 62.1094 33.2015C64.6779 29.8779 67.3338 26.8443 69.9607 24.1181ZM48.8294 40.8349C45.9976 45.2138 43.387 49.7302 41.0074 54.3672C39.5084 50.6692 38.1934 46.9002 37.0672 43.0738C40.8031 42.1922 44.7491 41.4265 48.8294 40.8349ZM22.9875 76.3565C12.8772 72.0758 6.33936 66.4553 6.33936 62.0005C6.33936 57.5458 12.8772 51.8962 22.9875 47.6445C25.4392 46.5947 28.1244 45.655 30.8971 44.7791C32.5257 50.3359 34.668 56.1247 37.3182 62.0585C34.8161 67.6396 32.7 73.3837 30.9847 79.2509C28.2729 78.4166 25.604 77.4507 22.9875 76.3565ZM38.3514 116.901C34.4696 114.697 32.7826 106.263 34.096 95.4283C34.4112 92.7601 34.9249 89.9469 35.5553 87.0815C41.1475 88.4446 47.2592 89.4945 53.6861 90.1789C57.3238 95.1655 61.2923 99.9052 65.5651 104.367C56.2546 112.963 47.516 117.673 41.5736 117.673C40.4525 117.685 39.3457 117.422 38.3514 116.907V116.901ZM106.088 95.2833C107.431 106.124 105.773 114.552 101.914 116.791C101.062 117.302 99.9471 117.528 98.6337 117.528C92.7205 117.528 83.9528 112.847 74.6422 104.303C78.8972 99.8602 82.839 95.1313 86.4395 90.1499C92.558 89.5271 98.6258 88.4844 104.6 87.0293C105.259 89.8947 105.767 92.6441 106.088 95.2833ZM117.08 76.3565C114.628 77.4064 111.943 78.3461 109.17 79.2219C107.425 73.3248 105.279 67.5518 102.749 61.9425C105.376 56.0435 107.483 50.2837 109.083 44.7501C111.803 45.5872 114.481 46.5531 117.109 47.6445C127.219 51.9252 133.757 57.5458 133.757 62.0005C133.728 66.4553 127.19 72.1048 117.08 76.3565Z" fill="#0A0903"/>
<path d="M70.0189 74.9702C73.4806 74.9702 76.8005 73.6037 79.2483 71.1714C81.696 68.7391 83.0712 65.4403 83.0712 62.0005C83.0712 58.5607 81.696 55.2618 79.2483 52.8295C76.8005 50.3972 73.4806 49.0308 70.0189 49.0308C66.5572 49.0308 63.2373 50.3972 60.7895 52.8295C58.3417 55.2618 56.9666 58.5607 56.9666 62.0005C56.9666 65.4403 58.3417 68.7391 60.7895 71.1714C63.2373 73.6037 66.5572 74.9702 70.0189 74.9702Z" fill="#0A0903"/>
</svg>
