<svg width="177" height="177" viewBox="0 0 177 177" fill="none" xmlns="http://www.w3.org/2000/svg">
<path d="M88.5 0C137.175 0 177 39.825 177 88.5C177 137.175 137.175 177 88.5 177C39.825 177 0 137.175 0 88.5C0 39.825 39.825 0 88.5 0ZM70.8 117.816C71.9062 122.794 71.9062 127.219 70.8 131.091L70.2469 132.75C70.2469 133.303 69.6937 133.856 69.6937 133.856C68.5875 136.069 67.4813 137.728 65.8219 139.941C60.8438 145.472 53.6531 147.684 50.3344 146.025C47.0156 144.366 48.675 136.069 54.7594 129.984C61.3969 123.347 70.2469 118.922 70.2469 118.922L70.8 117.816ZM143.812 37.6125C139.941 22.125 113.944 16.5938 89.0531 25.4438C74.6719 30.975 58.6312 39.2719 47.0156 49.7812C33.1875 62.5031 31.5281 73.5656 32.0812 77.9906C35.4 94.0312 57.525 105.094 66.9281 112.838C64.1625 113.944 44.25 123.9 39.825 134.409C34.8469 145.472 40.3781 153.216 44.25 153.769C55.8656 157.088 68.0344 151.003 74.1188 141.6C80.2031 132.197 79.65 120.581 76.8844 114.497C81.1872 113.168 85.761 112.978 90.1594 113.944C105.647 115.603 108.966 125.559 107.859 129.431C106.753 133.303 103.987 135.516 102.881 136.622C101.775 137.175 101.222 137.728 101.775 137.728C101.775 138.281 102.328 138.281 103.434 138.281C104.541 138.281 111.731 134.962 111.731 127.219C112.284 117.816 102.881 107.306 86.8406 107.306C80.2031 107.306 75.7781 107.859 73.0125 108.966C73.0125 108.412 72.4594 108.412 72.4594 108.412C62.5031 97.9031 44.25 90.1594 44.8031 75.7781C44.8031 70.8 47.0156 56.9719 80.2031 40.3781C107.306 26.55 129.431 30.4219 133.303 38.7188C138.834 50.3344 121.688 72.4594 93.4781 75.7781C82.4156 76.8844 76.8844 73.0125 75.7781 71.3531C74.1187 69.6937 74.1188 69.6937 73.5656 69.6937C72.4594 70.2469 73.0125 71.3531 73.5656 72.4594C74.6719 74.6719 77.9906 78.5437 84.075 80.7562C89.0531 82.4156 101.775 83.5219 117.262 77.4375C134.409 70.8 147.684 52.5469 143.812 37.0594V37.6125Z" fill="black"/>
</svg>
