<svg width="127" height="127" viewBox="0 0 127 127" fill="none" xmlns="http://www.w3.org/2000/svg">
<path d="M0 63.5V127H127V0H0V63.5ZM102.338 58.4359C105.383 59.1527 108.15 60.748 110.296 63.0238C111.454 64.262 113.189 66.5361 113.336 67.0957C113.375 67.2624 107.859 70.9613 104.509 73.029C104.386 73.1123 103.89 72.5964 103.35 71.7868C101.719 69.4095 100.001 68.3776 97.3773 68.1911C93.5315 67.941 91.0511 69.9492 91.0709 73.3187C91.0507 74.1432 91.2348 74.9598 91.6067 75.696C92.456 77.4541 94.0475 78.5058 98.9648 80.6371C108.061 84.5423 111.947 87.126 114.364 90.7852C117.07 94.8769 117.669 101.41 115.852 106.287C113.828 111.558 108.823 115.153 101.794 116.332C99.6236 116.725 94.4563 116.661 92.1187 116.229C87.0148 115.32 82.1769 112.796 79.2004 109.49C78.0217 108.208 75.7476 104.839 75.8944 104.612C75.9579 104.529 76.4738 104.2 77.0533 103.866L81.7682 101.136L85.4273 99.0084L86.1933 100.143C87.2688 101.775 89.6025 104.009 91.0114 104.751C95.0635 106.902 100.624 106.593 103.374 104.132C104.489 103.203 105.112 101.775 105.029 100.33C105.029 98.8616 104.842 98.2027 104.076 97.1034C103.084 95.6985 101.08 94.4999 95.3532 92.0194C88.8008 89.1858 85.9671 87.4514 83.4072 84.6614C81.7958 82.8249 80.604 80.6593 79.9147 78.3153C79.4385 76.5175 79.3155 72.009 79.6885 70.2112C81.0339 63.8651 85.8282 59.4638 92.71 58.162C94.9444 57.7294 100.151 57.8922 102.342 58.4319L102.338 58.4359ZM72.5329 63.75L72.5726 68.9372H56.0348V115.923H44.3349V68.9372H27.8209V63.8532C27.8209 61.0195 27.8844 58.6661 27.9638 58.6026C28.0273 58.5192 38.0722 58.4795 50.2682 58.4994L72.4694 58.5629L72.5329 63.75Z" fill="black"/>
</svg>
