<svg width="139" height="141" viewBox="0 0 139 141" fill="none" xmlns="http://www.w3.org/2000/svg">
<g clip-path="url(#clip0_139_510)">
<path d="M134.609 16.0484L96.8034 23.0111L103.373 0L50.9094 10.3872L50.092 24.333L4.12772 16.0316C0.962063 15.8454 -0.882549 18.1425 0.424596 21.3318L66.9418 139.194C68.3735 141.556 71.6697 141.648 73.1151 139.194L138.339 21.3205C139.811 18.6558 137.556 15.5323 134.609 16.0484ZM70.0151 135.963L4.87042 20.532L49.8391 28.6536L47.7192 64.8303L66.1523 60.532L61.0125 85.9626L75.0145 81.6643L68.0658 115.647C67.7197 117.869 70.5844 119.051 72.0014 115.87L112.944 33.3104L92.7383 37.2507L95.4873 27.6225L133.892 20.5494L70.0151 135.963Z" fill="#0A0903"/>
</g>
<defs>
<clipPath id="clip0_139_510">
<rect width="139" height="141" fill="white"/>
</clipPath>
</defs>
</svg>
