<svg width="147" height="147" viewBox="0 0 147 147" fill="none" xmlns="http://www.w3.org/2000/svg">
<path d="M128.721 110.99L75.6542 140.872V117.591L108.72 99.4778L128.721 110.99ZM132.359 107.714V45.1981L112.933 56.3701V96.5424L132.359 107.714ZM17.92 110.99L70.987 140.872V117.591L37.9212 99.4778L17.92 110.99ZM14.2817 107.714V45.1981L33.7087 56.3701V96.5424L14.2817 107.714ZM16.5556 41.151L70.987 10.5015V33.0154L35.8632 52.2541L16.5556 41.151ZM130.086 41.151L75.6542 10.5015V33.0154L110.778 52.2541L130.086 41.151ZM70.987 112.308L38.376 94.4339V59.0482L70.987 77.8045V112.308ZM75.6542 112.308L108.265 94.4339V59.0482L75.6542 77.8045V112.308ZM40.5764 54.9598L73.3298 37.0396L106.083 54.9598L73.3298 73.7896L40.5764 54.9598Z" fill="black"/>
</svg>
